<?xml version="1.0" encoding="UTF-8"?>
<svg version="1.1" xmlns="http://www.w3.org/2000/svg" width="1536" height="1024">
<path d="M0 0 C506.88 0 1013.76 0 1536 0 C1536 337.92 1536 675.84 1536 1024 C1029.12 1024 522.24 1024 0 1024 C0 686.08 0 348.16 0 0 Z " fill="#FDFDFD" transform="translate(0,0)"/>
<path d="M0 0 C10.92615682 -0.81180946 17.95468442 3.46359193 27.15087891 8.81005859 C32.04673063 11.6075691 37.04155877 14.22127689 42.02270508 16.8626709 C45.0410325 18.46673007 48.05201172 20.08441305 51.0625 21.703125 C51.65271942 22.020466 52.24293884 22.33780701 52.8510437 22.6647644 C65.63076595 29.54122042 78.37207721 36.48827731 91.03125 43.58447266 C95.38891948 46.01866993 99.77599814 48.3868178 104.19140625 50.71484375 C105.2602002 51.28211182 106.32899414 51.84937988 107.43017578 52.43383789 C109.51498428 53.53831452 111.60427427 54.63438885 113.69873047 55.72045898 C123.45483956 60.90497109 132.48181225 67.23955022 136.38417244 77.9948597 C137.64870923 82.87970155 137.44331128 87.8567072 137.42358398 92.87280273 C137.43387886 94.71092529 137.43387886 94.71092529 137.44438171 96.58618164 C137.45948649 99.92730424 137.4611606 103.26786606 137.45543933 106.60898089 C137.4523355 109.40703257 137.45845312 112.20503444 137.46447808 115.003079 C137.4784946 121.6082965 137.47698603 128.21338458 137.46557617 134.81860352 C137.45409726 141.61360167 137.46817303 148.40820502 137.49497265 155.20315117 C137.51718374 161.05566211 137.52375492 166.90804961 137.51789623 172.76059967 C137.51453837 176.24792542 137.51686302 179.73499817 137.53414726 183.22228813 C137.55259544 187.11376088 137.53837371 191.00475408 137.52124023 194.89624023 C137.5309082 196.03885818 137.54057617 197.18147614 137.55053711 198.35871887 C137.46055748 208.14350797 134.81889985 215.39637965 128.09375 222.55859375 C120.30640606 229.65666242 110.24503463 234.03511841 100.96484375 238.85546875 C96.37604899 241.2471393 91.84617647 243.73250957 87.33203125 246.26171875 C80.26108335 250.22015664 73.15017804 254.09937588 66.01953125 257.94921875 C58.91508062 261.78697298 51.82304741 265.6435549 44.76953125 269.57421875 C44.06481689 269.96673828 43.36010254 270.35925781 42.6340332 270.76367188 C41.19753932 271.56403459 39.76109787 272.36449143 38.32470703 273.16503906 C33.95544609 275.59909038 29.5832106 278.02762695 25.20703125 280.44921875 C24.36430664 280.91859863 23.52158203 281.38797852 22.65332031 281.87158203 C16.20341361 285.43462476 11.42393874 287.74562368 3.89453125 287.82421875 C2.67507813 287.85257813 1.455625 287.8809375 0.19921875 287.91015625 C-10.0074586 287.26607584 -19.14419408 281.3984595 -27.79296875 276.44921875 C-28.98211391 275.77726094 -30.17182121 275.10629707 -31.36206055 274.4362793 C-33.17015879 273.4183344 -34.97793548 272.39987033 -36.78401184 271.37834167 C-42.25681708 268.28332252 -47.76788688 265.26212425 -53.29296875 262.26171875 C-54.62932373 261.53432495 -54.62932373 261.53432495 -55.99267578 260.79223633 C-58.6546991 259.34350462 -61.31746207 257.89614197 -63.98046875 256.44921875 C-71.32035683 252.46114972 -78.65531825 248.46430365 -85.98046875 244.44921875 C-87.1190332 243.82515137 -88.25759766 243.20108398 -89.43066406 242.55810547 C-92.45944428 240.89627752 -95.48516602 239.22897567 -98.50918579 237.5585022 C-100.24063683 236.60309527 -101.97416934 235.65146355 -103.70776367 234.69995117 C-128.33822742 221.06348494 -128.33822742 221.06348494 -132.98046875 207.44921875 C-133.24332428 204.84727192 -133.24332428 204.84727192 -133.26135254 202.01789856 C-133.27277283 200.94005096 -133.28419312 199.86220337 -133.29595947 198.75169373 C-133.29819519 197.57913528 -133.30043091 196.40657684 -133.30273438 195.19848633 C-133.31266418 193.95560852 -133.32259399 192.71273071 -133.33282471 191.43218994 C-133.35699943 188.02896772 -133.37194729 184.62599059 -133.38084602 181.2227118 C-133.38672162 179.09271019 -133.39493394 176.96272977 -133.40385437 174.83273888 C-133.43118604 168.15746886 -133.45052708 161.48224767 -133.45825815 154.80692559 C-133.46720951 147.12180686 -133.5022651 139.43740137 -133.56025934 131.7524994 C-133.6036153 125.79898612 -133.62367323 119.84567258 -133.62634039 113.89200324 C-133.62842825 110.34237832 -133.64006276 106.79342463 -133.67597961 103.24396706 C-133.71533122 99.27805661 -133.70631548 95.31302406 -133.69335938 91.34692383 C-133.71178894 90.18448654 -133.73021851 89.02204926 -133.74920654 87.8243866 C-133.64804378 77.90686832 -130.13102688 71.4913884 -123.29296875 64.44921875 C-117.55398535 59.65874846 -110.8727526 56.52803513 -104.2421875 53.16796875 C-98.73354252 50.36243914 -93.38969927 47.29962152 -88.04296875 44.19921875 C-81.79325188 40.58917233 -75.53524631 37.13962148 -69.0390625 33.98828125 C-62.69965325 30.79833586 -56.54638677 27.25242861 -50.35791016 23.78125 C-28.48692456 11.5273891 -28.48692456 11.5273891 -18.98046875 6.44921875 C-18.09746094 5.97484375 -17.21445312 5.50046875 -16.3046875 5.01171875 C-15.43457031 4.55796875 -14.56445312 4.10421875 -13.66796875 3.63671875 C-12.90871094 3.23839844 -12.14945312 2.84007812 -11.3671875 2.4296875 C-7.67809764 0.91420214 -3.92027107 0.59086654 0 0 Z " fill="#FAFCFD" transform="translate(468.98046875,349.55078125)"/>
<path d="M0 0 C1.75957031 -0.04350586 1.75957031 -0.04350586 3.5546875 -0.08789062 C17.85124797 -0.19114356 30.33219167 5.42284611 40.86328125 15.078125 C49.68687682 24.8783127 56.01962618 37.05420582 56.875 50.3125 C56.9265625 50.98410156 56.978125 51.65570313 57.03125 52.34765625 C57.65786258 66.73363679 51.86569525 80.36207386 42.875 91.3125 C31.86540335 102.95121646 17.85201498 109.20236175 1.82592773 109.78759766 C-14.55443411 109.95402827 -27.84427845 105.40343313 -39.875 94.0625 C-51.5867266 81.65938346 -56.49861136 66.89400754 -56.33984375 50.01171875 C-55.51329081 35.77997993 -49.24230074 23.25611317 -39.125 13.3125 C-26.88526446 3.67070305 -15.4286537 0.12469278 0 0 Z " fill="#1D92E9" transform="translate(527.125,434.6875)"/>
<path d="M0 0 C10.92615682 -0.81180946 17.95468442 3.46359193 27.15087891 8.81005859 C32.04673063 11.6075691 37.04155877 14.22127689 42.02270508 16.8626709 C45.0410325 18.46673007 48.05201172 20.08441305 51.0625 21.703125 C51.65271942 22.020466 52.24293884 22.33780701 52.8510437 22.6647644 C65.63076595 29.54122042 78.37207721 36.48827731 91.03125 43.58447266 C95.38891948 46.01866993 99.77599814 48.3868178 104.19140625 50.71484375 C105.2602002 51.28211182 106.32899414 51.84937988 107.43017578 52.43383789 C109.51498428 53.53831452 111.60427427 54.63438885 113.69873047 55.72045898 C123.45483956 60.90497109 132.48181225 67.23955022 136.38417244 77.9948597 C137.64870923 82.87970155 137.44331128 87.8567072 137.42358398 92.87280273 C137.43387886 94.71092529 137.43387886 94.71092529 137.44438171 96.58618164 C137.45948649 99.92730424 137.4611606 103.26786606 137.45543933 106.60898089 C137.4523355 109.40703257 137.45845312 112.20503444 137.46447808 115.003079 C137.4784946 121.6082965 137.47698603 128.21338458 137.46557617 134.81860352 C137.45409726 141.61360167 137.46817303 148.40820502 137.49497265 155.20315117 C137.51718374 161.05566211 137.52375492 166.90804961 137.51789623 172.76059967 C137.51453837 176.24792542 137.51686302 179.73499817 137.53414726 183.22228813 C137.55259544 187.11376088 137.53837371 191.00475408 137.52124023 194.89624023 C137.5309082 196.03885818 137.54057617 197.18147614 137.55053711 198.35871887 C137.46055748 208.14350797 134.81889985 215.39637965 128.09375 222.55859375 C120.30640606 229.65666242 110.24503463 234.03511841 100.96484375 238.85546875 C96.37604899 241.2471393 91.84617647 243.73250957 87.33203125 246.26171875 C80.26108335 250.22015664 73.15017804 254.09937588 66.01953125 257.94921875 C58.91508062 261.78697298 51.82304741 265.6435549 44.76953125 269.57421875 C44.06481689 269.96673828 43.36010254 270.35925781 42.6340332 270.76367188 C41.19753932 271.56403459 39.76109787 272.36449143 38.32470703 273.16503906 C33.95544609 275.59909038 29.5832106 278.02762695 25.20703125 280.44921875 C24.36430664 280.91859863 23.52158203 281.38797852 22.65332031 281.87158203 C16.20341361 285.43462476 11.42393874 287.74562368 3.89453125 287.82421875 C2.67507813 287.85257813 1.455625 287.8809375 0.19921875 287.91015625 C-10.0074586 287.26607584 -19.14419408 281.3984595 -27.79296875 276.44921875 C-28.98211391 275.77726094 -30.17182121 275.10629707 -31.36206055 274.4362793 C-33.17015879 273.4183344 -34.97793548 272.39987033 -36.78401184 271.37834167 C-42.25681708 268.28332252 -47.76788688 265.26212425 -53.29296875 262.26171875 C-54.62932373 261.53432495 -54.62932373 261.53432495 -55.99267578 260.79223633 C-58.6546991 259.34350462 -61.31746207 257.89614197 -63.98046875 256.44921875 C-71.32035683 252.46114972 -78.65531825 248.46430365 -85.98046875 244.44921875 C-87.1190332 243.82515137 -88.25759766 243.20108398 -89.43066406 242.55810547 C-92.45944428 240.89627752 -95.48516602 239.22897567 -98.50918579 237.5585022 C-100.24063683 236.60309527 -101.97416934 235.65146355 -103.70776367 234.69995117 C-128.33822742 221.06348494 -128.33822742 221.06348494 -132.98046875 207.44921875 C-133.24332428 204.84727192 -133.24332428 204.84727192 -133.26135254 202.01789856 C-133.27277283 200.94005096 -133.28419312 199.86220337 -133.29595947 198.75169373 C-133.29819519 197.57913528 -133.30043091 196.40657684 -133.30273438 195.19848633 C-133.31266418 193.95560852 -133.32259399 192.71273071 -133.33282471 191.43218994 C-133.35699943 188.02896772 -133.37194729 184.62599059 -133.38084602 181.2227118 C-133.38672162 179.09271019 -133.39493394 176.96272977 -133.40385437 174.83273888 C-133.43118604 168.15746886 -133.45052708 161.48224767 -133.45825815 154.80692559 C-133.46720951 147.12180686 -133.5022651 139.43740137 -133.56025934 131.7524994 C-133.6036153 125.79898612 -133.62367323 119.84567258 -133.62634039 113.89200324 C-133.62842825 110.34237832 -133.64006276 106.79342463 -133.67597961 103.24396706 C-133.71533122 99.27805661 -133.70631548 95.31302406 -133.69335938 91.34692383 C-133.71178894 90.18448654 -133.73021851 89.02204926 -133.74920654 87.8243866 C-133.64804378 77.90686832 -130.13102688 71.4913884 -123.29296875 64.44921875 C-117.55398535 59.65874846 -110.8727526 56.52803513 -104.2421875 53.16796875 C-98.73354252 50.36243914 -93.38969927 47.29962152 -88.04296875 44.19921875 C-81.79325188 40.58917233 -75.53524631 37.13962148 -69.0390625 33.98828125 C-62.69965325 30.79833586 -56.54638677 27.25242861 -50.35791016 23.78125 C-28.48692456 11.5273891 -28.48692456 11.5273891 -18.98046875 6.44921875 C-18.09746094 5.97484375 -17.21445312 5.50046875 -16.3046875 5.01171875 C-15.43457031 4.55796875 -14.56445312 4.10421875 -13.66796875 3.63671875 C-12.90871094 3.23839844 -12.14945312 2.84007812 -11.3671875 2.4296875 C-7.67809764 0.91420214 -3.92027107 0.59086654 0 0 Z M-21.85546875 18.19921875 C-23.40282715 19.0487915 -23.40282715 19.0487915 -24.98144531 19.91552734 C-28.31924186 21.75156565 -31.65041058 23.59918644 -34.98046875 25.44921875 C-36.67574707 26.38846191 -36.67574707 26.38846191 -38.40527344 27.34667969 C-44.1306452 30.51877927 -49.85211451 33.69780052 -55.5703125 36.8828125 C-61.13651811 39.9821114 -66.71057521 43.06668282 -72.29296875 46.13671875 C-73.08171387 46.57113281 -73.87045898 47.00554687 -74.68310547 47.453125 C-78.98048162 49.81584684 -83.2889259 52.15628043 -87.609375 54.4765625 C-109.5964781 64.61365623 -109.5964781 64.61365623 -123.98046875 82.44921875 C-124.27641791 84.94596049 -124.27641791 84.94596049 -124.23443604 87.56578064 C-124.24007568 88.57368149 -124.24571533 89.58158234 -124.25152588 90.62002563 C-124.24747742 91.71471161 -124.24342896 92.80939758 -124.23925781 93.93725586 C-124.24276245 95.0987767 -124.24626709 96.26029755 -124.24987793 97.45701599 C-124.25868099 101.29692561 -124.25285058 105.136651 -124.24609375 108.9765625 C-124.2474409 111.64547454 -124.24937882 114.31438099 -124.25189209 116.98329163 C-124.25552809 122.57766718 -124.25074278 128.17198989 -124.24121094 133.76635742 C-124.23033238 140.22553686 -124.23384903 146.68458998 -124.24486375 153.14376634 C-124.25395342 158.69721681 -124.25521354 164.25062934 -124.24998641 169.80408484 C-124.24687525 173.11746579 -124.24722392 176.43077468 -124.25305939 179.74415398 C-124.25813959 183.44011846 -124.25039274 187.13584066 -124.23925781 190.83178711 C-124.24330627 191.92444885 -124.24735474 193.0171106 -124.25152588 194.1428833 C-124.2062807 202.25158728 -123.01660445 207.87426381 -117.98046875 214.44921875 C-112.65905504 219.50977884 -106.44887765 222.61874126 -99.98046875 226.01171875 C-98.22343494 226.94573707 -96.4664061 227.87976523 -94.70991516 228.81480408 C-92.93308248 229.75991294 -91.15485409 230.70235526 -89.37646484 231.64453125 C-84.49870655 234.23665126 -79.6423163 236.86690196 -74.79296875 239.51171875 C-73.9019043 239.99729248 -73.01083984 240.48286621 -72.09277344 240.9831543 C-65.60186853 244.53297788 -59.161425 248.16716298 -52.73046875 251.82421875 C-44.30463848 256.61228083 -35.82392953 261.28851376 -27.29296875 265.88671875 C-25.71757324 266.7372583 -25.71757324 266.7372583 -24.11035156 267.60498047 C-21.07460778 269.23453846 -18.03077012 270.8470873 -14.98046875 272.44921875 C-13.90458496 273.01632568 -12.82870117 273.58343262 -11.72021484 274.16772461 C-10.66527832 274.71178955 -9.6103418 275.25585449 -8.5234375 275.81640625 C-7.57879639 276.30608887 -6.63415527 276.79577148 -5.66088867 277.30029297 C0.7981024 280.06885222 6.26305877 278.97142378 12.64453125 276.51171875 C18.6416568 273.78095215 24.34781984 270.56601695 30.0546875 267.28515625 C36.29341436 263.70334997 42.59517401 260.23529211 48.89453125 256.76171875 C49.51467102 256.41941223 50.13481079 256.07710571 50.77374268 255.72442627 C60.84367497 250.1676927 70.95773193 244.69763151 81.09399414 239.26269531 C87.67886713 235.72663028 94.23109349 232.14278147 100.71948242 228.43237305 C103.66879846 226.74926384 106.63107629 225.11959163 109.6640625 223.59375 C118.51532747 219.09361192 123.87209667 215.39013111 127.36424255 205.88741875 C128.62815044 201.18466677 128.452484 196.41657837 128.43945312 191.57641602 C128.44792267 190.4095224 128.45639221 189.24262878 128.46511841 188.04037476 C128.48843976 184.19867941 128.48951174 180.35738566 128.48828125 176.515625 C128.49358836 174.51360122 128.49890254 172.51157731 128.50514841 170.50955623 C128.52433527 164.22077051 128.52728328 157.93211751 128.52050781 151.64331055 C128.51386722 145.17542213 128.53674221 138.70810402 128.57382154 132.24033123 C128.60459695 126.66806767 128.61587024 121.09598686 128.61198473 115.5236401 C128.60992561 112.20388407 128.61752889 108.88466915 128.63987732 105.56497383 C128.66207738 101.8599975 128.65235772 98.15638873 128.63476562 94.45141602 C128.64802887 93.3649025 128.66129211 92.27838898 128.67495728 91.15895081 C128.58212275 82.71993335 126.35150963 76.90895704 120.47265625 70.8046875 C115.63243228 67.19610014 110.100113 64.55582691 104.76953125 61.76171875 C102.99850371 60.82308891 101.22888315 59.8818438 99.45935059 58.94039917 C97.71123021 58.0105447 95.96206602 57.08265346 94.21289062 56.15478516 C90.12016101 53.96886703 86.06508925 51.72090372 82.01953125 49.44921875 C74.72962026 45.36758363 67.38092968 41.40029358 60.01953125 37.44921875 C52.4133817 33.36484171 44.81583052 29.26834986 37.26953125 25.07421875 C36.19759521 24.47855103 36.19759521 24.47855103 35.10400391 23.87084961 C31.74827329 21.99798385 28.40869245 20.10158405 25.08984375 18.1640625 C6.75220435 7.45897463 -3.46015437 7.96286857 -21.85546875 18.19921875 Z " fill="#076BD2" transform="translate(468.98046875,349.55078125)"/>
<path d="M0 0 C6.15110176 2.87205001 10.94033455 6.11113101 14.56640625 11.8984375 C14.97632813 12.51976562 15.38625 13.14109375 15.80859375 13.78125 C20.18358055 21.71657088 19.70947837 32.70751551 17.81640625 41.3984375 C14.35322209 51.09535314 9.77658418 57.34968616 0.50390625 62.3359375 C-6.36813928 65.07998346 -15.19037212 65.57959695 -22.10546875 62.83984375 C-24.91206973 61.11388658 -27.10798534 59.22404591 -29.43359375 56.8984375 C-29.76359375 67.4584375 -30.09359375 78.0184375 -30.43359375 88.8984375 C-37.36359375 88.8984375 -44.29359375 88.8984375 -51.43359375 88.8984375 C-51.43359375 59.5284375 -51.43359375 30.1584375 -51.43359375 -0.1015625 C-45.16359375 -0.1015625 -38.89359375 -0.1015625 -32.43359375 -0.1015625 C-32.43359375 3.1984375 -32.43359375 6.4984375 -32.43359375 9.8984375 C-31.77359375 9.8984375 -31.11359375 9.8984375 -30.43359375 9.8984375 C-30.34078125 9.0321875 -30.34078125 9.0321875 -30.24609375 8.1484375 C-28.78239597 4.09512058 -25.29918848 2.40120068 -21.703125 0.3125 C-14.87673552 -2.63989306 -7.01275607 -2.24982618 0 0 Z " fill="#0568CC" transform="translate(828.43359375,457.1015625)"/>
<path d="M0 0 C5.59225875 4.55132346 9.57095374 10.4628803 10.97265625 17.60546875 C11.91684998 28.21868431 11.36905538 36.59685364 4.97265625 45.60546875 C-0.57592429 51.99474331 -9.66788014 56.87107798 -18.0949707 57.84423828 C-30.78960497 58.58992938 -41.20745547 57.44912884 -51.52734375 49.35546875 C-55.42899608 45.65618428 -57.17574859 41.56444392 -59.02734375 36.60546875 C-59.383125 36.00347656 -59.73890625 35.40148437 -60.10546875 34.78125 C-62.80978124 28.39861418 -61.8047337 18.66275188 -59.58984375 12.23046875 C-55.27961136 3.14117168 -47.31738847 -2.94921665 -38.02734375 -6.39453125 C-24.98718111 -9.82499562 -10.92986583 -7.80704702 0 0 Z " fill="#0669CD" transform="translate(756.02734375,463.39453125)"/>
<path d="M0 0 C3.63 0 7.26 0 11 0 C11 30.03 11 60.06 11 91 C7.7 91 4.4 91 1 91 C0.67 87.7 0.34 84.4 0 81 C-0.61875 81.886875 -1.2375 82.77375 -1.875 83.6875 C-6.41288314 88.99430223 -11.77459296 91.57406765 -18.66796875 92.484375 C-26.6181184 92.77144159 -32.80821095 92.22242873 -39 87 C-45.51399806 80.85363498 -49.94332351 74.96507121 -50.46875 65.85546875 C-50.50250372 63.96641865 -50.51216948 62.07681244 -50.5 60.1875 C-50.49645508 59.20789307 -50.49291016 58.22828613 -50.48925781 57.21899414 C-50.32590729 50.13514486 -49.37507368 44.7526479 -45 39 C-44.1646875 37.63875 -44.1646875 37.63875 -43.3125 36.25 C-35.774896 28.91611503 -27.93943573 26.59134609 -17.6640625 26.64453125 C-10.79217448 27.31120695 -5.81902031 30.18097969 -1 35 C-0.67 23.45 -0.34 11.9 0 0 Z " fill="#2C323D" transform="translate(1037,429)"/>
<path d="M0 0 C1.08199677 -0.01416962 2.16399353 -0.02833923 3.27877808 -0.04293823 C4.46114044 -0.0379834 5.64350281 -0.03302856 6.86169434 -0.02792358 C8.73560349 -0.04325638 8.73560349 -0.04325638 10.64736938 -0.05889893 C14.07376788 -0.08194898 17.49919905 -0.08683518 20.92560768 -0.08177233 C23.792782 -0.07963017 26.65986756 -0.08940799 29.52702284 -0.09898317 C36.30108254 -0.12118015 43.07492054 -0.12204869 49.84899902 -0.10995483 C56.81329695 -0.097911 63.77678308 -0.12240265 70.74094248 -0.16509497 C76.73526831 -0.20047695 82.72933769 -0.21230525 88.72376394 -0.20581949 C92.29688655 -0.20221262 95.86943194 -0.2072712 99.44245911 -0.23524857 C103.43949787 -0.2653718 107.434921 -0.24633768 111.43200684 -0.22323608 C112.59817535 -0.23852356 113.76434387 -0.25381104 114.96585083 -0.26956177 C122.44502987 -0.17457096 127.6227066 1.44165804 134.14681244 5.11376381 C143.98957917 10.61697102 156.22118627 10.59838068 166.98083496 8.29873657 C170.0823714 7.40032937 172.9463468 6.16637211 175.91442871 4.89639282 C182.8983336 2.05788082 189.2201744 2.01915677 196.66442871 2.52139282 C196.82745724 4.41433517 196.943294 6.31137678 197.03942871 8.20889282 C197.14384277 9.7925061 197.14384277 9.7925061 197.25036621 11.40811157 C196.5716819 15.01418755 195.32132605 16.24503281 192.47637951 18.47544742 C189.33483487 20.28889852 186.09205672 20.20949761 182.57359314 20.15631104 C181.77570171 20.16411099 180.97781028 20.17191094 180.15574032 20.17994726 C177.49076315 20.19983981 174.82721838 20.18411422 172.16223145 20.16836548 C170.24829273 20.17514278 168.33436053 20.18404655 166.42044067 20.19491577 C161.22831429 20.21770065 156.03668492 20.20887641 150.84454989 20.19302034 C145.41096583 20.18035907 139.97742424 20.19210193 134.5438385 20.19995117 C125.42030192 20.20904627 116.29696776 20.19706258 107.17346191 20.17324829 C96.62368384 20.14602923 86.07438878 20.15485755 75.52462238 20.18238032 C66.46713132 20.20506455 57.40978572 20.20827504 48.35227543 20.19518697 C42.94240052 20.18738978 37.53275272 20.18635853 32.12289238 20.20286942 C27.03786077 20.21730513 21.95345253 20.20730868 16.86848831 20.17839813 C15.00164005 20.17178289 13.13473938 20.17369246 11.26791191 20.18471146 C8.72065833 20.19836139 6.17540638 20.18125977 3.62828064 20.15631104 C2.51816365 20.17304145 2.51816365 20.17304145 1.38562006 20.19010985 C-2.53513885 20.11553587 -4.19909523 19.63124201 -7.29400539 17.1401577 C-9.53524579 14.26526562 -9.99236657 13.04766039 -9.89807129 9.45889282 C-9.89936035 8.62229126 -9.90064941 7.7856897 -9.90197754 6.92373657 C-8.64206071 1.57995141 -5.14543023 0.0224888 0 0 Z " fill="#0969CA" transform="translate(371.3355712890625,541.4786071777344)"/>
<path d="M0 0 C1.13866013 -0.00137466 2.27732025 -0.00274933 3.45048523 -0.00416565 C4.70564438 -0.00057037 5.96080353 0.0030249 7.2539978 0.00672913 C9.22953392 0.00651009 9.22953392 0.00651009 11.24497986 0.00628662 C14.86252821 0.00599901 18.48004358 0.01188993 22.09758425 0.01886058 C25.87590653 0.02510009 29.65422951 0.02569839 33.43255615 0.02688599 C40.59006385 0.02999753 47.74755633 0.03820855 54.90505731 0.04823548 C63.05246774 0.05940208 71.19987888 0.06490845 79.34729505 0.06993091 C96.10966192 0.0803913 112.87201347 0.09798734 129.6343689 0.12025452 C129.6343689 0.45025452 129.6343689 0.78025452 129.6343689 1.12025452 C128.63470093 1.3406842 128.63470093 1.3406842 127.61483765 1.56556702 C121.06363658 3.15984532 115.77997532 5.46317838 110.04452515 9.01087952 C107.16198289 10.33768989 106.5865748 9.92031654 103.6343689 9.12025452 C102.14722949 9.03442526 100.65675785 8.99821817 99.16714478 9 C98.27815994 8.99862534 97.38917511 8.99725067 96.47325134 8.99583435 C95.02208168 9.00122726 95.02208168 9.00122726 93.54159546 9.00672913 C92.51688644 9.0065831 91.49217743 9.00643707 90.43641663 9.00628662 C87.04925419 9.00698331 83.66214673 9.01476437 80.2749939 9.02259827 C77.92658519 9.02446331 75.57817608 9.02588681 73.22976685 9.02688599 C67.04840013 9.03070436 60.8670569 9.04052887 54.68569946 9.05158997 C47.26927679 9.06361705 39.85284626 9.06820957 32.43641663 9.07404327 C21.16905104 9.08374095 9.90173701 9.10290231 -1.3656311 9.12025452 C-1.6956311 40.14025452 -2.0256311 71.16025452 -2.3656311 103.12025452 C7.83407593 103.0332428 7.83407593 103.0332428 18.23983765 102.94447327 C22.54650211 102.91892687 26.85307322 102.89485738 31.15975952 102.87611389 C37.99630116 102.8462191 44.83250813 102.81084603 51.66879272 102.74305725 C57.18012981 102.68874841 62.69110803 102.65883604 68.20269203 102.6458683 C70.30588748 102.63662648 72.40906318 102.61857931 74.51210594 102.59160423 C77.45718266 102.55532948 80.40077481 102.55030858 83.34603882 102.55262756 C84.2163826 102.53465118 85.08672638 102.5166748 85.98344421 102.49815369 C90.42306451 102.53600318 92.06397149 102.64298514 95.58988953 105.5932312 C96.26456772 106.4271489 96.93924591 107.26106659 97.6343689 108.12025452 C98.2943689 108.45025452 98.9543689 108.78025452 99.6343689 109.12025452 C99.6343689 109.78025452 99.6343689 110.44025452 99.6343689 111.12025452 C85.75245124 111.21369838 71.87058236 111.2839679 57.98841476 111.3275032 C51.54265195 111.34839586 45.09710012 111.3767447 38.65145874 111.42201233 C32.43340221 111.46540935 26.21554886 111.48937898 19.9973526 111.49976349 C17.62262014 111.50716584 15.24789905 111.52162052 12.87325287 111.54317474 C9.55216767 111.57212622 6.23192675 111.57621386 2.91073608 111.57435608 C1.92458817 111.58873718 0.93844025 111.60311829 -0.07759094 111.61793518 C-3.91284878 111.59465359 -6.57809712 111.5503907 -9.97555542 109.69476318 C-12.1338544 105.69745607 -11.92250921 101.95003333 -11.88320923 97.47401428 C-11.89021851 96.49635101 -11.89722778 95.51868774 -11.90444946 94.51139832 C-11.92206219 91.27786398 -11.91039378 88.0452041 -11.8968811 84.81166077 C-11.89957528 82.56490918 -11.90345708 80.31815873 -11.90847778 78.07141113 C-11.91437747 73.36126104 -11.90579525 68.65141428 -11.88711548 63.94129944 C-11.86433913 57.90393931 -11.87743821 51.86729095 -11.90140533 45.82995701 C-11.91586157 41.18967327 -11.91125781 36.54955816 -11.90089417 31.90926933 C-11.89822573 29.68332269 -11.9015007 27.45736073 -11.91081238 25.23143196 C-11.92097327 22.11917218 -11.90548179 19.00806336 -11.88320923 15.89588928 C-11.89130615 14.97572525 -11.89940308 14.05556122 -11.90774536 13.10751343 C-11.85217782 8.9154384 -11.72713349 6.69803656 -9.45828247 3.07177734 C-6.20062467 0.03381619 -4.36257506 -0.00404692 0 0 Z " fill="#0469D0" transform="translate(387.3656311035156,426.87974548339844)"/>
<path d="M0 0 C5.6335274 4.19517998 8.01479926 9.5252794 10.5703125 15.9140625 C10.5703125 20.8640625 10.5703125 25.8140625 10.5703125 30.9140625 C-4.6096875 30.9140625 -19.7896875 30.9140625 -35.4296875 30.9140625 C-33.43791723 41.21315002 -33.43791723 41.21315002 -26.9296875 48.7890625 C-22.0618995 50.9795671 -17.53637972 51.10616665 -12.2421875 51.1015625 C-11.48494385 51.10220703 -10.7277002 51.10285156 -9.94750977 51.10351562 C-4.5186353 51.05226137 0.3360504 50.43675693 5.5703125 48.9140625 C6.0653125 53.3690625 6.0653125 53.3690625 6.5703125 57.9140625 C-0.50748688 60.24557289 -7.26588234 61.23381576 -14.6796875 61.2890625 C-15.42331543 61.30259766 -16.16694336 61.31613281 -16.93310547 61.33007812 C-25.77525889 61.25941941 -33.03677414 58.00581077 -39.4296875 51.9140625 C-46.75696583 42.62047656 -47.42969792 32.64352503 -46.7109375 21.21972656 C-45.81011613 13.83486802 -41.90103113 7.95436224 -36.6171875 2.9140625 C-25.37609669 -5.74432948 -12.61462865 -7.09783105 0 0 Z " fill="#2F3641" transform="translate(1107.4296875,460.0859375)"/>
<path d="M0 0 C0 5.28 0 10.56 0 16 C-1.423125 15.67 -2.84625 15.34 -4.3125 15 C-11.0886102 13.66400097 -17.73772566 12.91257522 -24.375 15.125 C-27.58992363 17.42137402 -30.30012582 19.39684789 -32 23 C-32.97085417 29.15484908 -32.67718616 34.80121956 -29 40 C-23.97900046 44.53114593 -20.73698239 45.20318951 -14.125 45.25 C-13.40441406 45.270625 -12.68382812 45.29125 -11.94140625 45.3125 C-7.58454854 45.34459472 -5.22239092 44.95775012 -2 42 C-1.34 42 -0.68 42 0 42 C0 47.61 0 53.22 0 59 C-11.37557958 63.40345016 -25.32742143 64.25509591 -36.67578125 59.25 C-45.36636918 54.57607036 -50.82862197 48.5141341 -54 39 C-55.00154596 28.99848598 -55.60253159 18.17236428 -49 10 C-36.71518556 -3.56794787 -16.77163441 -7.31853138 0 0 Z " fill="#0568CB" transform="translate(944,459)"/>
<path d="M0 0 C0 6.27 0 12.54 0 19 C-2.02125 18.9175 -4.0425 18.835 -6.125 18.75 C-10.26545681 18.76800199 -12.7660616 18.90319791 -16.625 20.5 C-23.68788213 27.93461277 -22.54598329 38.41962397 -22.6875 48 C-22.7207203 49.55341343 -22.75521422 51.10680017 -22.79101562 52.66015625 C-22.87774916 56.44012474 -22.93826417 60.21921285 -23 64 C-29.93 64 -36.86 64 -44 64 C-44 43.21 -44 22.42 -44 1 C-37.4 1 -30.8 1 -24 1 C-23.67 4.63 -23.34 8.26 -23 12 C-22.154375 10.7625 -21.30875 9.525 -20.4375 8.25 C-14.53307042 0.48753314 -9.57543729 -0.5246815 0 0 Z " fill="#0668CD" transform="translate(692,456)"/>
<path d="M0 0 C5.26257 2.35136106 8.874131 4.52878425 11.875 9.5625 C14.30441725 17.53402536 14.46716422 28.66296309 11.375 36.5 C8.60248966 41.59943866 4.44771021 45.47576326 -1.0625 47.3125 C-7.88852812 48.0203844 -13.74539946 48.09001599 -19.44140625 43.9453125 C-25.56633569 37.77610646 -26.36889498 29.70152627 -26.37719727 21.43798828 C-26.24752143 14.64727163 -25.08622885 10.4274318 -20.37890625 5.578125 C-14.00285571 -0.18088839 -8.51519679 -1.91157479 0 0 Z " fill="#FAFAFA" transform="translate(1024.0625,464.6875)"/>
<path d="M0 0 C3.96 0 7.92 0 12 0 C12.37511719 1.16015625 12.75023437 2.3203125 13.13671875 3.515625 C15.72077863 11.43185845 18.4077917 19.19658233 21.69921875 26.8515625 C23.34809336 30.84253227 24.84819944 34.87570637 26.3125 38.9375 C26.57933594 39.6601001 26.84617187 40.3827002 27.12109375 41.12719727 C28.4487983 44.86180304 29.33450414 48.02484613 29 52 C29.66 52 30.32 52 31 52 C31.11730469 50.99710937 31.23460937 49.99421875 31.35546875 48.9609375 C32.61140935 40.21114468 36.14837857 31.55615211 39.89453125 23.58984375 C41.79888603 19.12840482 43.3251878 14.5262717 44.89428711 9.93798828 C45.13800049 9.23013184 45.38171387 8.52227539 45.6328125 7.79296875 C45.84824707 7.1589917 46.06368164 6.52501465 46.28564453 5.87182617 C47.05447355 3.85726292 48.03568023 1.92863955 49 0 C52.96 0 56.92 0 61 0 C60.32453125 1.60488281 59.6490625 3.20976562 58.953125 4.86328125 C58.05194792 7.01296407 57.1509139 9.16270687 56.25 11.3125 C55.58484375 12.8912793 55.58484375 12.8912793 54.90625 14.50195312 C52.4099619 20.46734749 50.07318149 26.4567025 47.89794922 32.54614258 C46.69924834 35.82187465 45.34137905 38.99414311 43.9375 42.1875 C40.91368482 49.17434567 38.26011414 55.43931515 37 63 C32.71 63 28.42 63 24 63 C21.86280144 57.65966844 19.72766888 52.31852108 17.59561157 46.97613525 C16.39477325 43.96759552 15.19314788 40.95937039 13.99145508 37.95117188 C13.37363121 36.40409545 12.75611667 34.85689547 12.13891602 33.30957031 C11.23017705 31.03156154 10.32031227 28.75400543 9.41015625 26.4765625 C9.11766998 25.74310608 8.82518372 25.00964966 8.52383423 24.25396729 C6.41912506 18.99386106 4.22149817 13.77893862 1.94311523 8.59130859 C0.90559121 5.7406019 0.41276907 2.99991234 0 0 Z " fill="#2D333E" transform="translate(1122,457)"/>
<path d="M0 0 C6.93 0 13.86 0 21 0 C21 20.46 21 40.92 21 62 C14.07 62 7.14 62 0 62 C0 41.54 0 21.08 0 0 Z " fill="#0467CC" transform="translate(858,457)"/>
<path d="M0 0 C4.62198193 1.80860162 6.53616693 4.77628616 9 9 C10.73973368 14.21920105 10.46891181 18.54390543 8.8125 23.6875 C6.35126629 28.18561678 3.94289005 31.35236998 -1 33 C-4.9687858 33.60762418 -8.49625142 33.84391163 -12.07421875 31.8359375 C-16.52457773 28.19727921 -18.70276062 24.9029093 -19.30078125 19.0625 C-19.30464844 18.051875 -19.30851563 17.04125 -19.3125 16 C-19.32925781 14.989375 -19.34601562 13.97875 -19.36328125 12.9375 C-18.73139555 7.82805868 -15.88648667 4.12832194 -11.875 0.94921875 C-8.0873111 -0.96829876 -4.10305813 -0.61855148 0 0 Z " fill="#F8FAFC" transform="translate(736,472)"/>
<path d="M0 0 C4.72403852 1.9512333 7.72471109 5.44942218 10 10 C10.67241542 17.07329299 10.17938963 23.01693132 5.59375 28.76171875 C2.34271024 32.05109624 -0.35580389 33.44604196 -5 33.75 C-9.74853001 33.4672631 -12.33203211 31.83653411 -15.72265625 28.60546875 C-19.83769574 23.4333549 -18.67811425 14.23989532 -18 8 C-14.08602514 0.06366328 -8.1908973 -0.71168934 0 0 Z " fill="#F7FAFC" transform="translate(816,472)"/>
<path d="M0 0 C12.87 0 25.74 0 39 0 C41 5 41 5 41 17 C26.48 17 11.96 17 -3 17 C-3 7 -3 7 0 0 Z " fill="#86C5F1" transform="translate(508,469)"/>
<path d="M0 0 C14.19 0 28.38 0 43 0 C43 7 43 7 41 16 C22.19 16.495 22.19 16.495 3 17 C0 10 0 10 0 0 Z " fill="#A7D9F8" transform="translate(506,493)"/>
<path d="M0 0 C3.76068902 2.698928 5.40233116 4.55466232 7.51953125 8.7890625 C7.51953125 11.7590625 7.51953125 14.7290625 7.51953125 17.7890625 C-4.03046875 17.7890625 -15.58046875 17.7890625 -27.48046875 17.7890625 C-26.35844197 8.81284825 -25.22927295 5.77280462 -18.41796875 0.3515625 C-12.78186318 -2.46649028 -5.6708662 -2.76845436 0 0 Z " fill="#F6F7F7" transform="translate(1099.48046875,465.2109375)"/>
<path d="M0 0 C3.17852316 1.64448689 5.37801764 3.75603527 7 7 C7.44408691 10.9079648 7.13704844 12.74548146 5.25 16.25 C2.58052059 19.51269706 0.7707142 20.75238793 -3.40234375 21.3359375 C-7.64465711 21.40130442 -10.26810834 21.4269368 -14 19.25 C-16.76774313 16.13628898 -17.80932743 14.25299118 -18.4375 10.125 C-17.82244681 5.7317629 -16.08098355 4.15434031 -13 1 C-9.03716439 -0.98141781 -4.30789762 -0.55820645 0 0 Z " fill="#076ACC" transform="translate(874,426)"/>
<path d="M0 0 C0.77666016 0.00064453 1.55332031 0.00128906 2.35351562 0.00195312 C6.65180163 0.0347089 10.70612866 0.34122573 14.9375 1.1875 C14.40913794 5.53094694 12.94775668 7.89307129 10.1875 11.25 C9.51203125 12.08660156 8.8365625 12.92320312 8.140625 13.78515625 C5.8918347 16.23729461 3.65105508 18.26318153 0.9375 20.1875 C-2.48368625 20.27302966 -3.79436283 19.40624348 -6.4375 17.25 C-16.0625 6.79472843 -16.0625 6.79472843 -16.0625 2.1875 C-10.56424766 0.33522591 -5.77988251 -0.09159113 0 0 Z " fill="#95C9F1" transform="translate(528.0625,514.8125)"/>
<path d="M0 0 C6.18126262 4.10068107 11.1118687 9.01235305 14.99609375 15.32421875 C14.99609375 16.31421875 14.99609375 17.30421875 14.99609375 18.32421875 C10.37672252 19.64244239 5.89276706 19.50827598 1.12109375 19.51171875 C0.23550781 19.52396484 -0.65007813 19.53621094 -1.5625 19.54882812 C-6.45255508 19.55975969 -10.41546181 19.23985645 -15.00390625 17.32421875 C-14.46208524 12.88452125 -12.82284656 10.21528229 -10.19140625 6.63671875 C-9.16080078 5.20779297 -9.16080078 5.20779297 -8.109375 3.75 C-3.7553462 -1.26642279 -3.7553462 -1.26642279 0 0 Z " fill="#C4E7FB" transform="translate(528.00390625,443.67578125)"/>
<path d="M0 0 C4.9352315 7.02896608 7 14.46237474 7 23 C1.06 23 -4.88 23 -11 23 C-11.12375 21.370625 -11.2475 19.74125 -11.375 18.0625 C-11.83709264 12.89242002 -12.76148479 8.03662854 -14 3 C-12.42274653 2.29866401 -10.83788667 1.614417 -9.25 0.9375 C-7.92742188 0.36322266 -7.92742188 0.36322266 -6.578125 -0.22265625 C-3.80270307 -1.05948801 -2.62619854 -1.17352907 0 0 Z " fill="#7DBBEA" transform="translate(567,463)"/>
<path d="M0 0 C0.66 0.268125 1.32 0.53625 2 0.8125 C5.64797099 2.25648851 9.32643861 3.62241448 13 5 C12.34 11.27 11.68 17.54 11 24 C4.73 24 -1.54 24 -8 24 C-6.87451075 14.99608599 -6.87451075 14.99608599 -5.625 11.97265625 C-5.23054688 11.00295898 -5.23054688 11.00295898 -4.828125 10.01367188 C-4.55484375 9.36978516 -4.2815625 8.72589844 -4 8.0625 C-3.72671875 7.39154297 -3.4534375 6.72058594 -3.171875 6.02929688 C-1.16528614 1.16528614 -1.16528614 1.16528614 0 0 Z " fill="#C1E7FB" transform="translate(488,462)"/>
<path d="M0 0 C5.94 0 11.88 0 18 0 C18.495 2.413125 18.99 4.82625 19.5 7.3125 C19.65662109 8.06829346 19.81324219 8.82408691 19.97460938 9.6027832 C20.55292952 12.45881266 21 15.07851544 21 18 C19.43979133 18.65134925 17.87671421 19.29582964 16.3125 19.9375 C15.44238281 20.29714844 14.57226562 20.65679688 13.67578125 21.02734375 C11.11820735 21.9570312 8.6778677 22.54162625 6 23 C4.66666667 19.66666667 3.33333333 16.33333333 2 13 C1.62617188 12.23042969 1.25234375 11.46085937 0.8671875 10.66796875 C0 8 0 8 0 0 Z " fill="#AFDFFA" transform="translate(481,493)"/>
<path d="M0 0 C6.625 -0.125 6.625 -0.125 10 1 C12.05893621 1.22325814 14.12233653 1.40705759 16.1875 1.5625 C18.105625 1.706875 20.02375 1.85125 22 2 C22 6.62 22 11.24 22 16 C14.08 16 6.16 16 -2 16 C-2 4.75 -2 4.75 0 0 Z " fill="#ABDCF9" transform="translate(508,469)"/>
<path d="M0 0 C5.94 0 11.88 0 18 0 C18 8.58426872 14.89356549 14.48139078 11 22 C5.74768339 21.34346042 2.22742388 19.96028396 -3 18 C-2.01 12.06 -1.02 6.12 0 0 Z " fill="#75B7E9" transform="translate(556,493)"/>
<path d="M0 0 C6.27 0 12.54 0 19 0 C19 6.14742119 18.42812751 10.19823201 17 16 C11.06 16 5.12 16 -1 16 C-0.67 10.72 -0.34 5.44 0 0 Z " fill="#8BC7F1" transform="translate(530,493)"/>
<path d="M0 0 C4.14866582 0.66674986 5.81886615 1.31264078 8.5 4.5625 C9.15352395 7.3600411 9.13811011 9.76286375 8.5 12.5625 C5.92798094 15.90612477 3.85130741 17.35229663 -0.3125 18 C-3.5 17.5625 -3.5 17.5625 -6.375 14.9375 C-8.69483097 11.25306258 -9.40140975 9.79912583 -8.5 5.5625 C-5.88580444 1.91846982 -4.45776553 0.7164266 0 0 Z " fill="#2B323E" transform="translate(966.5,503.4375)"/>
<path d="M0 0 C12.87 0 25.74 0 39 0 C39 1.32 39 2.64 39 4 C38 5 38 5 34.48999023 5.11352539 C32.92951578 5.11336626 31.36903607 5.10767142 29.80859375 5.09765625 C28.98875504 5.0962413 28.16891632 5.09482635 27.32423401 5.09336853 C24.69528618 5.08775289 22.06642227 5.07519779 19.4375 5.0625 C17.65950643 5.05748701 15.88151154 5.05292376 14.10351562 5.04882812 C9.73564455 5.03777839 5.36783652 5.02050331 1 5 C0.67 3.35 0.34 1.7 0 0 Z " fill="#F2F6FA" transform="translate(442,549)"/>
<path d="M0 0 C2.87506421 -0.02712325 5.74986908 -0.04689851 8.625 -0.0625 C9.83736328 -0.07506836 9.83736328 -0.07506836 11.07421875 -0.08789062 C15.50341918 -0.1058955 19.63883424 0.10377338 24 1 C23.47163794 5.34344694 22.01025668 7.70557129 19.25 11.0625 C18.57453125 11.89910156 17.8990625 12.73570312 17.203125 13.59765625 C14.95054979 16.05392178 12.73097298 18.08920559 10 20 C7.25 19.875 7.25 19.875 5 19 C4.67 18.34 4.34 17.68 4 17 C6.475 17.99 6.475 17.99 9 19 C9.13277344 17.85660156 9.26554688 16.71320312 9.40234375 15.53515625 C9.5805031 14.0442438 9.75890082 12.55335982 9.9375 11.0625 C10.02451172 10.30775391 10.11152344 9.55300781 10.20117188 8.77539062 C10.88671875 3.11328125 10.88671875 3.11328125 12 2 C8.04 1.67 4.08 1.34 0 1 C0 0.67 0 0.34 0 0 Z " fill="#77B9EB" transform="translate(519,515)"/>
<path d="M0 0 C1.81640625 2.51953125 1.81640625 2.51953125 3.5625 5.8125 C5.46751557 9.36372056 7.10696828 12.21248919 10 15 C10 15.66 10 16.32 10 17 C1.967004 16.1967004 -5.72311271 12.18385229 -11 6 C-11 5.01 -11 4.02 -11 3 C-4.5 0 -4.5 0 0 0 Z " fill="#ABD9F7" transform="translate(505,517)"/>
<path d="M0 0 C3.78087845 1.89043923 5.43904924 3.24434202 8.1875 6.3125 C8.88230469 7.07175781 9.57710937 7.83101563 10.29296875 8.61328125 C12.10994031 11.15371517 12.63575549 12.92838582 13 16 C10.00519083 16.8723412 7.36424089 17.10829766 4.25 17.0625 C2.14625 17.0315625 2.14625 17.0315625 0 17 C0 11.39 0 5.78 0 0 Z " fill="#9FD3F7" transform="translate(530,446)"/>
<path d="M0 0 C-0.38671875 0.49628906 -0.7734375 0.99257813 -1.171875 1.50390625 C-4.50270951 5.84883147 -7.39257462 10.18629161 -10 15 C-14.05606165 14.53199289 -17.46588679 14.12046792 -21 12 C-18.62638133 6.3763496 -13.64196864 3.38388834 -8.375 0.625 C-5.51501373 -0.12762796 -2.9440994 -0.13693486 0 0 Z " fill="#D4EEFC" transform="translate(515,445)"/>
<path d="M0 0 C1.46067199 0.45082469 2.91848032 0.91093537 4.375 1.375 C5.18710937 1.63023437 5.99921875 1.88546875 6.8359375 2.1484375 C9 3 9 3 11 5 C5.68392942 10.28637187 0.37141556 14.13659384 -7 16 C-7.66 15.67 -8.32 15.34 -9 15 C-8.51789062 14.25234375 -8.03578125 13.5046875 -7.5390625 12.734375 C-6.90742187 11.74953125 -6.27578125 10.7646875 -5.625 9.75 C-4.99851562 8.77546875 -4.37203125 7.8009375 -3.7265625 6.796875 C-2.34865148 4.56478385 -1.11687358 2.36912578 0 0 Z " fill="#60ABE3" transform="translate(550,517)"/>
<path d="M0 0 C6.82995021 1.88071093 13.42531246 4.53093942 19 9 C19 9.99 19 10.98 19 12 C13.67980296 15.02283923 13.67980296 15.02283923 11.0234375 14.93359375 C7.98741163 13.53280189 7.04171499 11.34883444 5.375 8.5 C3.3230281 4.58654361 3.3230281 4.58654361 0 2 C0 1.34 0 0.68 0 0 Z " fill="#86C4F0" transform="translate(540,445)"/>
<path d="M0 0 C21.12 0 42.24 0 64 0 C64 0.33 64 0.66 64 1 C59.71 1.99 55.42 2.98 51 4 C50.505 3.01 50.505 3.01 50 2 C25.25 1.505 25.25 1.505 0 1 C0 0.67 0 0.34 0 0 Z " fill="#0A6FD3" transform="translate(453,427)"/>
<path d="M0 0 C0.66 0.33 1.32 0.66 2 1 C1.154375 1.67804688 0.30875 2.35609375 -0.5625 3.0546875 C-11.22261622 11.73756215 -18.83992168 19.5930149 -23 33 C-23.65228496 34.67234762 -24.31488551 36.34083143 -25 38 C-26.91936628 33.0456358 -24.47314009 28.98678361 -22.59765625 24.33203125 C-20.34082264 19.62523646 -17.40458118 15.91692106 -14 12 C-13.401875 11.13375 -12.80375 10.2675 -12.1875 9.375 C-8.66630768 5.5519912 -4.31708481 2.85883288 0 0 Z " fill="#54BCFB" transform="translate(498,441)"/>
<path d="M0 0 C1.32 0 2.64 0 4 0 C4 4.62 4 9.24 4 14 C2.68 14 1.36 14 0 14 C0 9.38 0 4.76 0 0 Z " fill="#C3E4F9" transform="translate(526,471)"/>
<path d="M0 0 C0.33 0.99 0.66 1.98 1 3 C-3.26041226 6.76354036 -7.51848911 10.49881962 -12 14 C-10.66445565 10.02119078 -9.01381696 7.65301487 -6 4.75 C-4.948125 3.72132813 -4.948125 3.72132813 -3.875 2.671875 C-2 1 -2 1 0 0 Z " fill="#1872CE" transform="translate(710,461)"/>
<path d="M0 0 C0.66 0.33 1.32 0.66 2 1 C-0.08215303 2.77223719 -2.16566919 4.54282726 -4.25 6.3125 C-4.83652344 6.81201172 -5.42304688 7.31152344 -6.02734375 7.82617188 C-8.95626566 10.31081912 -11.88855374 12.7434313 -15 15 C-12.21893294 8.17374449 -5.76943956 4.16602212 0 0 Z " fill="#3AAEF8" transform="translate(498,441)"/>
<path d="M0 0 C5.94 0 11.88 0 18 0 C18 0.33 18 0.66 18 1 C13.71 1.99 9.42 2.98 5 4 C4.67 3.34 4.34 2.68 4 2 C2.68 1.34 1.36 0.68 0 0 Z " fill="#1881DF" transform="translate(499,427)"/>
<path d="M0 0 C0 0.33 0 0.66 0 1 C-0.928125 1.268125 -1.85625 1.53625 -2.8125 1.8125 C-5.8311641 2.93710035 -6.9155143 3.70706573 -9 6 C-9.66 6 -10.32 6 -11 6 C-11 7.65 -11 9.3 -11 11 C-11.33 11 -11.66 11 -12 11 C-12.46233492 7.0239197 -12.30954571 5.43148796 -9.9375 2.125 C-6.34962488 -0.47048413 -4.3322929 -0.4247346 0 0 Z " fill="#535963" transform="translate(970,504)"/>
<path d="M0 0 C0.66 0.33 1.32 0.66 2 1 C1.195625 1.886875 0.39125 2.77375 -0.4375 3.6875 C-2.7039159 6.38287032 -3.68417366 8.42063478 -4 12 C-4.33 12 -4.66 12 -5 12 C-5.35338623 9.03155565 -5.5417682 6.84401782 -3.88671875 4.265625 C-2.64496832 2.79651181 -1.32662082 1.39295186 0 0 Z " fill="#2E80D1" transform="translate(861,427)"/>
<path d="M0 0 C2.25 -0.25 2.25 -0.25 5 0 C7.3125 2 7.3125 2 9 4 C3.46153846 3.38461538 3.46153846 3.38461538 1.125 1.4375 C0.75375 0.963125 0.3825 0.48875 0 0 Z " fill="#4BB2F5" transform="translate(490,462)"/>
<path d="M0 0 C5.75 1.75 5.75 1.75 8 4 C6.25 4.6875 6.25 4.6875 4 5 C1.75 3.6875 1.75 3.6875 0 2 C0 1.34 0 0.68 0 0 Z " fill="#95CFF4" transform="translate(540,445)"/>
</svg>
